<svg width="95" height="50" viewBox="0 0 95 50" fill="none" xmlns="http://www.w3.org/2000/svg">
<rect width="95" height="50" rx="25" fill="#C8C5B1"/>
<circle cx="25" cy="25" r="20" fill="#322E38"/>
<path d="M15.4004 31.3996H34.6004V29.2663H15.4004V31.3996ZM15.4004 26.0663H34.6004V23.9329H15.4004V26.0663ZM15.4004 18.5996V20.7329H34.6004V18.5996H15.4004Z" fill="white"/>
<circle cx="70" cy="25" r="20" fill="#696755"/>
<path d="M69.8861 24.8852C72.5381 24.8852 74.6861 22.7372 74.6861 20.0852C74.6861 17.4332 72.5381 15.2852 69.8861 15.2852C67.2341 15.2852 65.0861 17.4332 65.0861 20.0852C65.0861 22.7372 67.2341 24.8852 69.8861 24.8852ZM69.8861 27.2852C66.6821 27.2852 60.2861 28.8932 60.2861 32.0852V34.4852H79.4861V32.0852C79.4861 28.8932 73.0901 27.2852 69.8861 27.2852Z" fill="#C8C5B1"/>
</svg>
