<svg width="1630" height="62" viewBox="0 0 1630 62" fill="none" xmlns="http://www.w3.org/2000/svg">
<rect x="696" width="242" height="62" fill="#C8C5B1"/>
<path d="M928 62H996C978.879 62 965 48.1211 965 31C965 13.8789 951.121 0 934 0H928V62Z" fill="#C8C5B1"/>
<path d="M702 62H634C651.121 62 665 48.1211 665 31C665 13.8789 678.879 0 696 0H702V62Z" fill="#C8C5B1"/>
<path d="M703.553 41.404C702.863 41.404 702.107 41.2173 701.285 40.844C700.483 40.4707 699.493 39.8827 698.317 39.08C697.16 38.296 695.704 37.2787 693.949 36.028L694.873 36.336C693.1 36.3173 691.56 35.9253 690.253 35.16C688.947 34.3947 687.939 33.284 687.229 31.828C686.539 30.3533 686.193 28.5333 686.193 26.368C686.193 24.6507 686.417 23.148 686.865 21.86C687.313 20.5533 687.948 19.4613 688.769 18.584C689.609 17.7067 690.599 17.0533 691.737 16.624C692.876 16.176 694.145 15.952 695.545 15.952C696.908 15.952 698.14 16.1667 699.241 16.596C700.361 17.0253 701.313 17.6507 702.097 18.472C702.881 19.2933 703.479 20.32 703.889 21.552C704.319 22.7653 704.533 24.1653 704.533 25.752C704.533 27.6187 704.244 29.2613 703.665 30.68C703.087 32.0987 702.275 33.256 701.229 34.152C700.184 35.048 698.952 35.664 697.533 36L697.645 35.524C698.709 36.1587 699.596 36.672 700.305 37.064C701.015 37.4747 701.631 37.7733 702.153 37.96C702.676 38.1467 703.161 38.24 703.609 38.24C704.076 38.24 704.543 38.1467 705.009 37.96C705.476 37.792 706.008 37.5307 706.605 37.176L708.033 39.612C707.081 40.1907 706.26 40.6293 705.569 40.928C704.897 41.2453 704.225 41.404 703.553 41.404ZM690.505 26.256C690.505 27.9173 690.692 29.2613 691.065 30.288C691.439 31.3147 691.98 32.0707 692.689 32.556C693.399 33.0227 694.248 33.256 695.237 33.256C696.283 33.256 697.179 33.0133 697.925 32.528C698.672 32.024 699.241 31.2307 699.633 30.148C700.025 29.0653 700.221 27.656 700.221 25.92C700.221 24.296 700.025 22.98 699.633 21.972C699.26 20.9453 698.709 20.1987 697.981 19.732C697.272 19.2653 696.395 19.032 695.349 19.032C694.341 19.032 693.473 19.284 692.745 19.788C692.017 20.2733 691.457 21.048 691.065 22.112C690.692 23.1573 690.505 24.5387 690.505 26.256ZM712.637 36.336C711.386 36.336 710.341 35.9347 709.501 35.132C708.661 34.3107 708.241 33.0787 708.241 31.436V23.26L708.605 23.82L706.393 23.148V21.132L712.161 20.936V30.792C712.161 31.6693 712.357 32.3227 712.749 32.752C713.141 33.1627 713.663 33.368 714.317 33.368C714.821 33.368 715.371 33.2373 715.969 32.976C716.585 32.696 717.191 32.2667 717.789 31.688L717.509 32.388V23.176L717.873 23.82L715.661 23.148V21.132L721.429 20.936V33.928L720.953 33.256L723.305 33.984V35.972L718.377 36.196L717.845 33.452L718.405 33.648C717.471 34.544 716.501 35.216 715.493 35.664C714.503 36.112 713.551 36.336 712.637 36.336ZM730.945 33.704L730.665 33.368L732.821 33.984V36H725.149V33.984L727.305 33.368L727.025 33.704V23.484L727.277 23.736L725.149 23.148V21.132L730.945 20.936V33.704ZM728.873 18.752C728.182 18.752 727.622 18.556 727.193 18.164C726.782 17.772 726.577 17.212 726.577 16.484C726.577 15.7 726.791 15.1213 727.221 14.748C727.669 14.356 728.229 14.16 728.901 14.16C729.554 14.16 730.095 14.356 730.525 14.748C730.954 15.1213 731.169 15.6907 731.169 16.456C731.169 17.2213 730.945 17.8 730.497 18.192C730.067 18.5653 729.526 18.752 728.873 18.752ZM734.623 36V33.984L736.891 33.34L736.499 33.928V23.176L736.947 23.848L734.623 23.148V21.132L739.551 20.908L740.055 23.568L739.551 23.456C740.391 22.5787 741.221 21.9067 742.043 21.44C742.864 20.9547 743.741 20.712 744.675 20.712C745.272 20.712 745.907 20.8053 746.579 20.992L746.327 26.172H744.059L743.639 23.148L744.003 23.904C743.891 23.8667 743.769 23.8387 743.639 23.82C743.527 23.8013 743.415 23.792 743.303 23.792C742.724 23.792 742.145 23.9693 741.567 24.324C741.007 24.6787 740.521 25.136 740.111 25.696L740.419 24.632V33.928L739.971 33.34L742.743 33.984V36H734.623ZM747.506 36V33.984L749.83 33.312L749.354 34.04V16.624L749.662 17.072L747.506 16.456V14.44L753.274 14.216V27.096L752.63 26.508H756.214L755.262 26.956L757.782 23.12L758.062 23.54L756.102 23.148V21.16L762.934 20.936V22.924L760.582 23.456L761.646 22.868L758.202 27.964L758.258 26.956L761.954 33.928L761.366 33.424L763.494 34.012V36H758.958L755.402 28.86L755.962 29.112H752.63L753.274 28.86V34.04L752.882 33.284L755.066 33.984V36H747.506ZM764.385 42.58L764.749 39.808C765.048 39.8453 765.318 39.8733 765.561 39.892C765.822 39.9107 766.065 39.92 766.289 39.92C767.11 39.92 767.773 39.752 768.277 39.416C768.8 39.0987 769.248 38.5947 769.621 37.904C770.013 37.232 770.396 36.3547 770.769 35.272L770.629 36.588L765.253 23.232L765.617 23.568L763.993 23.176V21.16L770.965 20.936V22.924L769.005 23.456L769.201 23.12L772.757 33.592L771.805 33.396L774.969 23.176L775.165 23.568L773.233 23.176V21.16L779.841 20.936V22.924L778.077 23.484L778.609 23.148L773.989 35.944C773.597 37.0267 773.177 37.988 772.729 38.828C772.281 39.668 771.768 40.3773 771.189 40.956C770.629 41.5533 769.966 42.0013 769.201 42.3C768.454 42.6173 767.577 42.776 766.569 42.776C765.916 42.776 765.188 42.7107 764.385 42.58ZM804.379 34.124L803.343 33.2L805.751 33.984V36H797.715V33.984L800.151 33.284L799.759 33.844L798.639 30.204L799.255 30.708H791.863L792.339 30.232L791.135 33.788L791.023 33.368L793.263 33.984V36H785.955V33.984L788.279 33.256L787.383 34.04L793.991 16.344L798.107 16.232L804.379 34.124ZM792.871 28.468L792.591 27.936H798.611L798.219 28.552L795.307 18.444H796.231L792.871 28.468ZM812.008 36.336C810.72 36.336 809.74 35.9533 809.068 35.188C808.414 34.404 808.088 33.2467 808.088 31.716V23.148L808.592 23.652H805.904V21.552L808.648 20.908L808.088 21.58V17.772L812.036 17.072V21.58L811.616 21.048H815.872L815.816 23.652H811.616L812.036 23.148V31.184C812.036 31.9867 812.166 32.5653 812.428 32.92C812.689 33.2747 813.081 33.452 813.604 33.452C813.902 33.452 814.229 33.4053 814.584 33.312C814.957 33.2 815.358 33.06 815.788 32.892L816.516 35.048C814.948 35.9067 813.445 36.336 812.008 36.336ZM823.614 36.336C822.326 36.336 821.346 35.9533 820.674 35.188C820.021 34.404 819.694 33.2467 819.694 31.716V23.148L820.198 23.652H817.51V21.552L820.254 20.908L819.694 21.58V17.772L823.642 17.072V21.58L823.222 21.048H827.478L827.422 23.652H823.222L823.642 23.148V31.184C823.642 31.9867 823.773 32.5653 824.034 32.92C824.296 33.2747 824.688 33.452 825.21 33.452C825.509 33.452 825.836 33.4053 826.19 33.312C826.564 33.2 826.965 33.06 827.394 32.892L828.122 35.048C826.554 35.9067 825.052 36.336 823.614 36.336ZM829.761 36V33.984L832.029 33.34L831.637 33.928V23.176L832.085 23.848L829.761 23.148V21.132L834.689 20.908L835.193 23.568L834.689 23.456C835.529 22.5787 836.36 21.9067 837.181 21.44C838.003 20.9547 838.88 20.712 839.813 20.712C840.411 20.712 841.045 20.8053 841.717 20.992L841.465 26.172H839.197L838.777 23.148L839.141 23.904C839.029 23.8667 838.908 23.8387 838.777 23.82C838.665 23.8013 838.553 23.792 838.441 23.792C837.863 23.792 837.284 23.9693 836.705 24.324C836.145 24.6787 835.66 25.136 835.249 25.696L835.557 24.632V33.928L835.109 33.34L837.881 33.984V36H829.761ZM855.365 34.012L854.833 33.228L857.241 33.984V35.972L852.341 36.224L851.809 33.536L852.089 33.62C851.342 34.5347 850.53 35.216 849.653 35.664C848.775 36.112 847.87 36.336 846.937 36.336C845.742 36.336 844.753 35.9533 843.969 35.188C843.185 34.4227 842.793 33.3213 842.793 31.884C842.793 30.82 843.017 29.98 843.465 29.364C843.931 28.7293 844.603 28.272 845.481 27.992C846.358 27.712 847.422 27.572 848.673 27.572H851.725L851.445 27.88V26.032C851.445 25.1547 851.23 24.5293 850.801 24.156C850.39 23.7827 849.783 23.596 848.981 23.596C848.589 23.596 848.169 23.6333 847.721 23.708C847.273 23.7827 846.787 23.8947 846.265 24.044L846.657 23.624L846.293 25.892H843.857L843.633 21.804C844.902 21.4307 846.059 21.16 847.105 20.992C848.169 20.8053 849.139 20.712 850.017 20.712C851.753 20.712 853.078 21.0853 853.993 21.832C854.907 22.5787 855.365 23.736 855.365 25.304V34.012ZM846.741 31.492C846.741 32.1827 846.899 32.696 847.217 33.032C847.553 33.3493 847.973 33.508 848.477 33.508C848.943 33.508 849.457 33.368 850.017 33.088C850.577 32.7893 851.109 32.388 851.613 31.884L851.445 32.556V29.364L851.725 29.644H849.317C848.346 29.644 847.674 29.7933 847.301 30.092C846.927 30.3907 846.741 30.8573 846.741 31.492ZM865.768 36.336C864.48 36.336 863.313 36.0373 862.268 35.44C861.241 34.824 860.429 33.9467 859.832 32.808C859.235 31.6693 858.936 30.288 858.936 28.664C858.936 27.1893 859.151 25.948 859.58 24.94C860.009 23.932 860.588 23.12 861.316 22.504C862.044 21.8693 862.856 21.412 863.752 21.132C864.648 20.852 865.572 20.712 866.524 20.712C867.42 20.712 868.325 20.824 869.24 21.048C870.155 21.272 870.901 21.524 871.48 21.804L871.368 25.92H868.848L868.428 23.624L868.736 23.848C868.456 23.736 868.111 23.652 867.7 23.596C867.308 23.54 866.944 23.512 866.608 23.512C865.805 23.512 865.133 23.7173 864.592 24.128C864.069 24.52 863.677 25.0893 863.416 25.836C863.155 26.564 863.024 27.432 863.024 28.44C863.024 29.5227 863.173 30.4373 863.472 31.184C863.771 31.9307 864.191 32.5 864.732 32.892C865.292 33.2653 865.936 33.452 866.664 33.452C867.243 33.452 867.877 33.3307 868.568 33.088C869.259 32.8453 869.977 32.4813 870.724 31.996L872.04 33.984C870.995 34.7867 869.949 35.384 868.904 35.776C867.859 36.1493 866.813 36.336 865.768 36.336ZM879.065 36.336C877.777 36.336 876.797 35.9533 876.125 35.188C875.472 34.404 875.145 33.2467 875.145 31.716V23.148L875.649 23.652H872.961V21.552L875.705 20.908L875.145 21.58V17.772L879.093 17.072V21.58L878.673 21.048H882.929L882.873 23.652H878.673L879.093 23.148V31.184C879.093 31.9867 879.224 32.5653 879.485 32.92C879.747 33.2747 880.139 33.452 880.661 33.452C880.96 33.452 881.287 33.4053 881.641 33.312C882.015 33.2 882.416 33.06 882.845 32.892L883.573 35.048C882.005 35.9067 880.503 36.336 879.065 36.336ZM891.008 33.704L890.728 33.368L892.884 33.984V36H885.212V33.984L887.368 33.368L887.088 33.704V23.484L887.34 23.736L885.212 23.148V21.132L891.008 20.936V33.704ZM888.936 18.752C888.246 18.752 887.686 18.556 887.256 18.164C886.846 17.772 886.64 17.212 886.64 16.484C886.64 15.7 886.855 15.1213 887.284 14.748C887.732 14.356 888.292 14.16 888.964 14.16C889.618 14.16 890.159 14.356 890.588 14.748C891.018 15.1213 891.232 15.6907 891.232 16.456C891.232 17.2213 891.008 17.8 890.56 18.192C890.131 18.5653 889.59 18.752 888.936 18.752ZM902.162 20.712C904.365 20.712 906.082 21.3653 907.314 22.672C908.546 23.9787 909.162 25.836 909.162 28.244C909.162 29.924 908.864 31.3707 908.266 32.584C907.669 33.7787 906.81 34.7027 905.69 35.356C904.57 36.0093 903.226 36.336 901.658 36.336C899.456 36.336 897.748 35.6827 896.534 34.376C895.34 33.0693 894.742 31.212 894.742 28.804C894.742 27.124 895.032 25.6867 895.61 24.492C896.208 23.2787 897.057 22.3453 898.158 21.692C899.26 21.0387 900.594 20.712 902.162 20.712ZM901.966 23.512C900.902 23.512 900.109 23.932 899.586 24.772C899.064 25.5933 898.802 26.872 898.802 28.608C898.802 30.344 899.054 31.604 899.558 32.388C900.062 33.1533 900.828 33.536 901.854 33.536C902.601 33.536 903.208 33.3493 903.674 32.976C904.141 32.6027 904.496 32.0333 904.738 31.268C904.981 30.5027 905.102 29.56 905.102 28.44C905.102 26.7413 904.841 25.5 904.318 24.716C903.796 23.9133 903.012 23.512 901.966 23.512ZM911.407 36V33.984L913.759 33.312L913.283 33.872V23.204L913.759 23.848L911.407 23.148V21.132L916.335 20.908L916.839 23.596L916.335 23.4C917.231 22.4853 918.183 21.8133 919.191 21.384C920.199 20.936 921.16 20.712 922.075 20.712C923.344 20.712 924.399 21.1133 925.239 21.916C926.079 22.7 926.489 23.8947 926.471 25.5V33.872L926.107 33.312L928.347 33.984V36H920.871V33.984L922.999 33.368L922.551 33.956V26.34C922.551 25.4253 922.345 24.7533 921.935 24.324C921.543 23.8947 921.02 23.68 920.367 23.68C919.863 23.68 919.312 23.82 918.715 24.1C918.117 24.38 917.529 24.8 916.951 25.36L917.203 24.772V33.956L916.839 33.368L918.883 33.984V36H911.407ZM934.298 24.828C934.298 25.2573 934.485 25.6027 934.858 25.864C935.231 26.1253 935.707 26.3493 936.286 26.536C936.883 26.7227 937.509 26.9187 938.162 27.124C938.834 27.3293 939.459 27.6 940.038 27.936C940.635 28.2533 941.121 28.6827 941.494 29.224C941.867 29.7653 942.054 30.4653 942.054 31.324C942.054 32.4253 941.755 33.3493 941.158 34.096C940.561 34.8427 939.749 35.4027 938.722 35.776C937.695 36.1493 936.538 36.336 935.25 36.336C934.503 36.336 933.71 36.2707 932.87 36.14C932.049 36.0093 931.199 35.832 930.322 35.608L930.49 31.38H932.954L933.262 33.844L932.926 33.368C933.299 33.48 933.71 33.5733 934.158 33.648C934.606 33.704 934.998 33.732 935.334 33.732C935.819 33.732 936.267 33.6667 936.678 33.536C937.107 33.4053 937.453 33.2187 937.714 32.976C937.994 32.7147 938.134 32.388 938.134 31.996C938.134 31.548 937.947 31.1933 937.574 30.932C937.201 30.6707 936.715 30.4467 936.118 30.26C935.539 30.0733 934.923 29.8773 934.27 29.672C933.635 29.4667 933.019 29.196 932.422 28.86C931.843 28.524 931.367 28.076 930.994 27.516C930.621 26.956 930.434 26.228 930.434 25.332C930.434 24.2493 930.705 23.372 931.246 22.7C931.787 22.0093 932.506 21.5053 933.402 21.188C934.317 20.8707 935.315 20.712 936.398 20.712C937.163 20.712 937.975 20.7867 938.834 20.936C939.693 21.0667 940.57 21.2627 941.466 21.524L941.326 25.276H938.834L938.386 23.064L938.918 23.652C938.041 23.4093 937.266 23.288 936.594 23.288C935.903 23.288 935.343 23.428 934.914 23.708C934.503 23.9693 934.298 24.3427 934.298 24.828Z" fill="black"/>
<path d="M1446.36 51V42.104H1443.34V40.536H1451.24V42.104H1448.22V51H1446.36ZM1454.9 51.192C1454.25 51.192 1453.64 51.032 1453.08 50.712C1452.51 50.3813 1452.05 49.912 1451.7 49.304C1451.35 48.6853 1451.17 47.944 1451.17 47.08C1451.17 46.2053 1451.35 45.464 1451.7 44.856C1452.05 44.2373 1452.51 43.768 1453.08 43.448C1453.64 43.1173 1454.25 42.952 1454.9 42.952C1455.56 42.952 1456.17 43.1173 1456.74 43.448C1457.3 43.768 1457.76 44.2373 1458.12 44.856C1458.47 45.464 1458.64 46.2053 1458.64 47.08C1458.64 47.944 1458.47 48.6853 1458.12 49.304C1457.76 49.912 1457.3 50.3813 1456.74 50.712C1456.17 51.032 1455.56 51.192 1454.9 51.192ZM1454.9 49.688C1455.48 49.688 1455.93 49.448 1456.26 48.968C1456.59 48.488 1456.76 47.8587 1456.76 47.08C1456.76 46.2907 1456.59 45.656 1456.26 45.176C1455.93 44.696 1455.48 44.456 1454.9 44.456C1454.32 44.456 1453.87 44.696 1453.54 45.176C1453.22 45.656 1453.06 46.2907 1453.06 47.08C1453.06 47.8587 1453.22 48.488 1453.54 48.968C1453.87 49.448 1454.32 49.688 1454.9 49.688ZM1462.87 51.192C1461.97 51.192 1461.32 50.9307 1460.94 50.408C1460.56 49.8747 1460.38 49.1867 1460.38 48.344V44.6H1459.26V43.224L1460.47 43.144L1460.7 41H1462.23V43.144H1464.23V44.6H1462.23V48.344C1462.23 49.2613 1462.6 49.72 1463.34 49.72C1463.48 49.72 1463.62 49.704 1463.77 49.672C1463.92 49.6293 1464.05 49.5867 1464.15 49.544L1464.47 50.904C1464.26 50.9787 1464.01 51.0427 1463.74 51.096C1463.47 51.16 1463.18 51.192 1462.87 51.192ZM1467.45 51.192C1466.76 51.192 1466.2 50.9787 1465.77 50.552C1465.34 50.1253 1465.13 49.5707 1465.13 48.888C1465.13 48.0453 1465.5 47.3947 1466.23 46.936C1466.97 46.4667 1468.14 46.1467 1469.75 45.976C1469.74 45.56 1469.63 45.2027 1469.42 44.904C1469.21 44.5947 1468.84 44.44 1468.31 44.44C1467.93 44.44 1467.55 44.5147 1467.18 44.664C1466.81 44.8133 1466.46 44.9947 1466.1 45.208L1465.43 43.976C1465.87 43.6987 1466.36 43.4587 1466.9 43.256C1467.46 43.0533 1468.04 42.952 1468.66 42.952C1469.64 42.952 1470.38 43.2453 1470.86 43.832C1471.35 44.408 1471.59 45.2453 1471.59 46.344V51H1470.07L1469.94 50.136H1469.88C1469.53 50.4347 1469.15 50.6853 1468.74 50.888C1468.35 51.0907 1467.92 51.192 1467.45 51.192ZM1468.04 49.752C1468.36 49.752 1468.65 49.6773 1468.9 49.528C1469.17 49.368 1469.45 49.1547 1469.75 48.888V47.128C1468.68 47.2667 1467.94 47.4747 1467.53 47.752C1467.11 48.0187 1466.9 48.3493 1466.9 48.744C1466.9 49.096 1467.01 49.352 1467.22 49.512C1467.44 49.672 1467.71 49.752 1468.04 49.752ZM1475.59 51.192C1474.93 51.192 1474.47 50.9947 1474.19 50.6C1473.93 50.2053 1473.79 49.6667 1473.79 48.984V39.704H1475.63V49.08C1475.63 49.304 1475.68 49.464 1475.76 49.56C1475.85 49.6453 1475.94 49.688 1476.03 49.688C1476.08 49.688 1476.11 49.688 1476.15 49.688C1476.19 49.6773 1476.25 49.6667 1476.32 49.656L1476.56 51.032C1476.45 51.0747 1476.32 51.112 1476.15 51.144C1475.99 51.176 1475.8 51.192 1475.59 51.192ZM1483.64 45.432L1483.28 46.712H1485.95L1485.58 45.432C1485.41 44.8773 1485.24 44.3067 1485.08 43.72C1484.93 43.1333 1484.79 42.552 1484.64 41.976H1484.57C1484.43 42.5627 1484.28 43.1493 1484.12 43.736C1483.97 44.312 1483.81 44.8773 1483.64 45.432ZM1480.14 51L1483.55 40.536H1485.72L1489.13 51H1487.18L1486.36 48.168H1482.84L1482.03 51H1480.14ZM1492.78 51.192C1491.87 51.192 1491.23 50.9307 1490.84 50.408C1490.47 49.8747 1490.28 49.1867 1490.28 48.344V44.6H1489.16V43.224L1490.38 43.144L1490.6 41H1492.14V43.144H1494.14V44.6H1492.14V48.344C1492.14 49.2613 1492.51 49.72 1493.24 49.72C1493.38 49.72 1493.53 49.704 1493.68 49.672C1493.83 49.6293 1493.95 49.5867 1494.06 49.544L1494.38 50.904C1494.17 50.9787 1493.92 51.0427 1493.64 51.096C1493.38 51.16 1493.09 51.192 1492.78 51.192ZM1498.25 51.192C1497.34 51.192 1496.7 50.9307 1496.31 50.408C1495.94 49.8747 1495.75 49.1867 1495.75 48.344V44.6H1494.63V43.224L1495.85 43.144L1496.07 41H1497.61V43.144H1499.61V44.6H1497.61V48.344C1497.61 49.2613 1497.98 49.72 1498.71 49.72C1498.85 49.72 1499 49.704 1499.14 49.672C1499.29 49.6293 1499.42 49.5867 1499.53 49.544L1499.85 50.904C1499.64 50.9787 1499.39 51.0427 1499.11 51.096C1498.85 51.16 1498.56 51.192 1498.25 51.192ZM1501.26 51V43.144H1502.78L1502.91 44.536H1502.97C1503.25 44.024 1503.59 43.6347 1503.98 43.368C1504.38 43.0907 1504.78 42.952 1505.2 42.952C1505.57 42.952 1505.87 43.0053 1506.09 43.112L1505.77 44.712C1505.64 44.6693 1505.51 44.6373 1505.39 44.616C1505.27 44.5947 1505.13 44.584 1504.96 44.584C1504.65 44.584 1504.32 44.7067 1503.98 44.952C1503.64 45.1867 1503.35 45.6027 1503.1 46.2V51H1501.26ZM1508.71 51.192C1508.03 51.192 1507.47 50.9787 1507.03 50.552C1506.61 50.1253 1506.39 49.5707 1506.39 48.888C1506.39 48.0453 1506.76 47.3947 1507.5 46.936C1508.23 46.4667 1509.41 46.1467 1511.02 45.976C1511.01 45.56 1510.89 45.2027 1510.68 44.904C1510.48 44.5947 1510.11 44.44 1509.58 44.44C1509.19 44.44 1508.81 44.5147 1508.44 44.664C1508.08 44.8133 1507.72 44.9947 1507.37 45.208L1506.7 43.976C1507.13 43.6987 1507.62 43.4587 1508.17 43.256C1508.72 43.0533 1509.31 42.952 1509.93 42.952C1510.91 42.952 1511.64 43.2453 1512.12 43.832C1512.61 44.408 1512.86 45.2453 1512.86 46.344V51H1511.34L1511.21 50.136H1511.14C1510.79 50.4347 1510.41 50.6853 1510.01 50.888C1509.61 51.0907 1509.18 51.192 1508.71 51.192ZM1509.3 49.752C1509.62 49.752 1509.91 49.6773 1510.17 49.528C1510.44 49.368 1510.72 49.1547 1511.02 48.888V47.128C1509.95 47.2667 1509.21 47.4747 1508.79 47.752C1508.38 48.0187 1508.17 48.3493 1508.17 48.744C1508.17 49.096 1508.28 49.352 1508.49 49.512C1508.7 49.672 1508.97 49.752 1509.3 49.752ZM1518.34 51.192C1517.62 51.192 1516.98 51.032 1516.4 50.712C1515.84 50.3813 1515.38 49.912 1515.04 49.304C1514.71 48.6853 1514.55 47.944 1514.55 47.08C1514.55 46.2053 1514.73 45.464 1515.09 44.856C1515.45 44.2373 1515.93 43.768 1516.53 43.448C1517.14 43.1173 1517.79 42.952 1518.48 42.952C1518.98 42.952 1519.42 43.0373 1519.79 43.208C1520.17 43.3787 1520.5 43.5867 1520.79 43.832L1519.89 45.032C1519.69 44.8507 1519.48 44.712 1519.27 44.616C1519.05 44.5093 1518.82 44.456 1518.58 44.456C1517.95 44.456 1517.43 44.696 1517.03 45.176C1516.63 45.656 1516.43 46.2907 1516.43 47.08C1516.43 47.8587 1516.63 48.488 1517.01 48.968C1517.41 49.448 1517.91 49.688 1518.53 49.688C1518.84 49.688 1519.13 49.624 1519.39 49.496C1519.67 49.3573 1519.92 49.1973 1520.15 49.016L1520.9 50.232C1520.54 50.552 1520.13 50.792 1519.68 50.952C1519.23 51.112 1518.79 51.192 1518.34 51.192ZM1525.06 51.192C1524.15 51.192 1523.51 50.9307 1523.12 50.408C1522.75 49.8747 1522.57 49.1867 1522.57 48.344V44.6H1521.45V43.224L1522.66 43.144L1522.89 41H1524.42V43.144H1526.42V44.6H1524.42V48.344C1524.42 49.2613 1524.79 49.72 1525.53 49.72C1525.66 49.72 1525.81 49.704 1525.96 49.672C1526.11 49.6293 1526.23 49.5867 1526.34 49.544L1526.66 50.904C1526.45 50.9787 1526.2 51.0427 1525.93 51.096C1525.66 51.16 1525.37 51.192 1525.06 51.192ZM1528.07 51V43.144H1529.91V51H1528.07ZM1529 41.768C1528.67 41.768 1528.4 41.672 1528.2 41.48C1528 41.288 1527.9 41.032 1527.9 40.712C1527.9 40.4027 1528 40.152 1528.2 39.96C1528.4 39.768 1528.67 39.672 1529 39.672C1529.33 39.672 1529.6 39.768 1529.8 39.96C1530 40.152 1530.11 40.4027 1530.11 40.712C1530.11 41.032 1530 41.288 1529.8 41.48C1529.6 41.672 1529.33 41.768 1529 41.768ZM1535.48 51.192C1534.83 51.192 1534.22 51.032 1533.65 50.712C1533.09 50.3813 1532.63 49.912 1532.28 49.304C1531.93 48.6853 1531.75 47.944 1531.75 47.08C1531.75 46.2053 1531.93 45.464 1532.28 44.856C1532.63 44.2373 1533.09 43.768 1533.65 43.448C1534.22 43.1173 1534.83 42.952 1535.48 42.952C1536.14 42.952 1536.75 43.1173 1537.32 43.448C1537.88 43.768 1538.34 44.2373 1538.69 44.856C1539.05 45.464 1539.22 46.2053 1539.22 47.08C1539.22 47.944 1539.05 48.6853 1538.69 49.304C1538.34 49.912 1537.88 50.3813 1537.32 50.712C1536.75 51.032 1536.14 51.192 1535.48 51.192ZM1535.48 49.688C1536.05 49.688 1536.51 49.448 1536.84 48.968C1537.17 48.488 1537.33 47.8587 1537.33 47.08C1537.33 46.2907 1537.17 45.656 1536.84 45.176C1536.51 44.696 1536.05 44.456 1535.48 44.456C1534.9 44.456 1534.45 44.696 1534.12 45.176C1533.8 45.656 1533.64 46.2907 1533.64 47.08C1533.64 47.8587 1533.8 48.488 1534.12 48.968C1534.45 49.448 1534.9 49.688 1535.48 49.688ZM1541.04 51V43.144H1542.56L1542.69 44.2H1542.76C1543.11 43.8587 1543.49 43.5653 1543.91 43.32C1544.32 43.0747 1544.8 42.952 1545.33 42.952C1546.17 42.952 1546.79 43.224 1547.17 43.768C1547.56 44.312 1547.75 45.08 1547.75 46.072V51H1545.91V46.312C1545.91 45.6613 1545.81 45.2027 1545.62 44.936C1545.43 44.6693 1545.11 44.536 1544.68 44.536C1544.33 44.536 1544.03 44.6213 1543.76 44.792C1543.51 44.952 1543.21 45.192 1542.88 45.512V51H1541.04ZM1552.19 51.192C1551.65 51.192 1551.12 51.0907 1550.59 50.888C1550.05 50.6747 1549.6 50.4133 1549.21 50.104L1550.08 48.92C1550.43 49.1867 1550.78 49.4 1551.13 49.56C1551.48 49.72 1551.86 49.8 1552.25 49.8C1552.68 49.8 1552.99 49.7093 1553.2 49.528C1553.4 49.3467 1553.5 49.1227 1553.5 48.856C1553.5 48.632 1553.41 48.4507 1553.24 48.312C1553.08 48.1627 1552.88 48.0347 1552.62 47.928C1552.36 47.8107 1552.1 47.6987 1551.82 47.592C1551.48 47.464 1551.14 47.3093 1550.8 47.128C1550.47 46.936 1550.19 46.696 1549.98 46.408C1549.77 46.1093 1549.66 45.7413 1549.66 45.304C1549.66 44.6107 1549.92 44.0453 1550.43 43.608C1550.94 43.1707 1551.63 42.952 1552.51 42.952C1553.06 42.952 1553.56 43.048 1554 43.24C1554.43 43.432 1554.81 43.6507 1555.13 43.896L1554.28 45.016C1554.01 44.8133 1553.72 44.6533 1553.44 44.536C1553.16 44.408 1552.87 44.344 1552.56 44.344C1552.16 44.344 1551.87 44.4293 1551.68 44.6C1551.48 44.76 1551.39 44.9627 1551.39 45.208C1551.39 45.5173 1551.55 45.752 1551.87 45.912C1552.19 46.072 1552.56 46.2267 1552.99 46.376C1553.35 46.504 1553.7 46.664 1554.04 46.856C1554.39 47.0373 1554.67 47.2773 1554.89 47.576C1555.13 47.8747 1555.24 48.2693 1555.24 48.76C1555.24 49.432 1554.98 50.008 1554.46 50.488C1553.94 50.9573 1553.18 51.192 1552.19 51.192ZM1562.27 53.848C1561.6 52.76 1561.09 51.624 1560.71 50.44C1560.34 49.256 1560.15 47.96 1560.15 46.552C1560.15 45.144 1560.34 43.848 1560.71 42.664C1561.09 41.48 1561.6 40.344 1562.27 39.256L1563.42 39.768C1562.82 40.792 1562.38 41.8853 1562.09 43.048C1561.8 44.2107 1561.66 45.3787 1561.66 46.552C1561.66 47.7253 1561.8 48.8933 1562.09 50.056C1562.38 51.2187 1562.82 52.312 1563.42 53.336L1562.27 53.848ZM1567.97 51.192C1567.14 51.192 1566.45 51.0533 1565.89 50.776C1565.33 50.488 1564.87 50.1573 1564.49 49.784L1565.34 48.6C1565.65 48.888 1566 49.144 1566.38 49.368C1566.77 49.5813 1567.21 49.688 1567.73 49.688C1568.29 49.688 1568.76 49.5173 1569.13 49.176C1569.51 48.8347 1569.69 48.3547 1569.69 47.736C1569.69 47.128 1569.52 46.6587 1569.18 46.328C1568.84 45.9973 1568.39 45.832 1567.82 45.832C1567.49 45.832 1567.21 45.88 1566.99 45.976C1566.77 46.0613 1566.5 46.2053 1566.19 46.408L1565.31 45.848L1565.61 40.824H1571.05V42.376H1567.21L1567.01 44.84C1567.22 44.7333 1567.43 44.6533 1567.63 44.6C1567.84 44.536 1568.08 44.504 1568.35 44.504C1568.94 44.504 1569.47 44.616 1569.95 44.84C1570.43 45.064 1570.81 45.4107 1571.1 45.88C1571.4 46.3493 1571.55 46.952 1571.55 47.688C1571.55 48.424 1571.38 49.0533 1571.04 49.576C1570.71 50.0987 1570.27 50.4987 1569.73 50.776C1569.18 51.0533 1568.59 51.192 1567.97 51.192ZM1574.15 53.848L1573 53.336C1573.6 52.312 1574.04 51.2187 1574.33 50.056C1574.62 48.8933 1574.76 47.7253 1574.76 46.552C1574.76 45.3787 1574.62 44.2107 1574.33 43.048C1574.04 41.8853 1573.6 40.792 1573 39.768L1574.15 39.256C1574.81 40.344 1575.33 41.48 1575.7 42.664C1576.08 43.848 1576.26 45.144 1576.26 46.552C1576.26 47.96 1576.08 49.256 1575.7 50.44C1575.33 51.624 1574.81 52.76 1574.15 53.848Z" fill="#0B0412"/>
<path d="M1629.85 45.3536C1630.05 45.1583 1630.05 44.8417 1629.85 44.6465L1626.67 41.4645C1626.48 41.2692 1626.16 41.2692 1625.96 41.4645C1625.77 41.6597 1625.77 41.9763 1625.96 42.1716L1628.79 45L1625.96 47.8284C1625.77 48.0237 1625.77 48.3403 1625.96 48.5355C1626.16 48.7308 1626.48 48.7308 1626.67 48.5355L1629.85 45.3536ZM1587.5 45.5L1629.5 45.5L1629.5 44.5L1587.5 44.5L1587.5 45.5Z" fill="#0B0412"/>
<path d="M819.59 45.7949L815 50.3749L810.41 45.7949L809 47.2049L815 53.2049L821 47.2049L819.59 45.7949Z" fill="#0B0412"/>
</svg>
