<svg width="250" height="46" viewBox="0 0 250 46" fill="none" xmlns="http://www.w3.org/2000/svg">
<path d="M49.3526 31.569V29.8156L51.5626 29.1824L51.1302 29.8643V16.2267L51.7308 16.9573L49.3526 16.2997V14.5463L54.7094 14.4245H57.0395C58.9612 14.4245 60.4105 14.8304 61.3874 15.6422C62.3643 16.454 62.8527 17.6229 62.8527 19.149C62.8527 20.5128 62.4363 21.6411 61.6036 22.5341C60.7869 23.427 59.4977 23.9709 57.7361 24.1657L57.7601 23.7761C58.3847 23.7923 58.8972 23.8897 59.2975 24.0683C59.6979 24.2469 60.0262 24.4985 60.2824 24.8233C60.5546 25.1317 60.8029 25.5051 61.0271 25.9435L62.9488 29.6938L61.9639 29.085L64.1739 29.8156V31.569H60.2344L58.0724 26.8689C57.7842 26.252 57.536 25.7811 57.3278 25.4564C57.1196 25.1155 56.8633 24.8882 56.5591 24.7745C56.2548 24.6447 55.8144 24.5878 55.2379 24.6041H53.9888L54.5653 24.117V29.8643L54.1089 29.1581L56.5351 29.8156V31.569H49.3526ZM54.5653 23.0455L53.9888 22.1931H55.9826C57.1036 22.1931 57.9443 21.9577 58.5048 21.4869C59.0653 21.0161 59.3456 20.318 59.3456 19.3925C59.3456 18.6133 59.1214 18.0044 58.673 17.5661C58.2246 17.1277 57.5359 16.9085 56.6071 16.9085H53.9888L54.5653 16.3728V23.0455Z" fill="black"/>
<path d="M71.1746 18.2723C73.0643 18.2723 74.5376 18.8405 75.5946 19.977C76.6515 21.1135 77.18 22.7289 77.18 24.8233C77.18 26.2844 76.9238 27.5427 76.4113 28.598C75.8988 29.637 75.1622 30.4407 74.2013 31.0089C73.2405 31.5771 72.0874 31.8613 70.7422 31.8613C68.8525 31.8613 67.3872 31.293 66.3463 30.1565C65.3214 29.0201 64.8089 27.4047 64.8089 25.3103C64.8089 23.8491 65.0572 22.599 65.5536 21.56C66.0661 20.5047 66.7947 19.6929 67.7396 19.1247C68.6844 18.5564 69.8294 18.2723 71.1746 18.2723ZM71.0065 20.7076C70.0937 20.7076 69.413 21.0729 68.9646 21.8035C68.5162 22.5178 68.292 23.63 68.292 25.1398C68.292 26.6497 68.5082 27.7456 68.9406 28.4275C69.373 29.0931 70.0296 29.426 70.9104 29.426C71.551 29.426 72.0714 29.2636 72.4718 28.9389C72.8721 28.6142 73.1764 28.119 73.3846 27.4534C73.5928 26.7877 73.6969 25.9678 73.6969 24.9937C73.6969 23.5163 73.4727 22.4367 73.0243 21.7548C72.5759 21.0567 71.9033 20.7076 71.0065 20.7076Z" fill="black"/>
<path d="M89.5065 29.84L89.0501 29.1581L91.116 29.8156V31.5447L86.9122 31.7638L86.4558 29.426L86.696 29.499C86.0555 30.2945 85.3588 30.8871 84.6062 31.2768C83.8535 31.6664 83.0768 31.8613 82.2761 31.8613C81.2512 31.8613 80.4024 31.5284 79.7298 30.8628C79.0572 30.1971 78.7209 29.2393 78.7209 27.9891C78.7209 27.0637 78.9131 26.3331 79.2974 25.7974C79.6978 25.2454 80.2743 24.8476 81.027 24.6041C81.7797 24.3605 82.6925 24.2388 83.7654 24.2388H86.3838L86.1435 24.5067V22.8994C86.1435 22.1363 85.9594 21.5924 85.5911 21.2677C85.2387 20.943 84.7183 20.7807 84.0297 20.7807C83.6934 20.7807 83.333 20.8131 82.9487 20.8781C82.5644 20.943 82.148 21.0404 81.6996 21.1703L82.0359 20.805L81.7236 22.7776H79.6337L79.4416 19.2221C80.5305 18.8974 81.5234 18.662 82.4202 18.5158C83.333 18.3535 84.1658 18.2723 84.9184 18.2723C86.4078 18.2723 87.5448 18.597 88.3295 19.2464C89.1142 19.8958 89.5065 20.9024 89.5065 22.2662V29.84ZM82.1079 27.6482C82.1079 28.2489 82.2441 28.6954 82.5163 28.9876C82.8046 29.2636 83.1649 29.4016 83.5973 29.4016C83.9976 29.4016 84.438 29.2798 84.9184 29.0363C85.3989 28.7765 85.8553 28.4275 86.2877 27.9891L86.1435 28.5736V25.7974L86.3838 26.0409H84.3179C83.4852 26.0409 82.9087 26.1708 82.5884 26.4305C82.2681 26.6903 82.1079 27.0962 82.1079 27.6482Z" fill="black"/>
<path d="M96.9183 31.8613C95.9895 31.8613 95.1647 31.6177 94.4441 31.1307C93.7395 30.6274 93.179 29.8887 92.7626 28.9145C92.3622 27.9404 92.162 26.7553 92.162 25.359C92.162 22.9562 92.7626 21.1784 93.9637 20.0257C95.1647 18.8568 96.8542 18.2723 99.0322 18.2723C99.3845 18.2723 99.7368 18.2885 100.089 18.321C100.441 18.3535 100.81 18.4103 101.194 18.4915L100.57 18.8811V14.8629L100.81 15.2038L98.84 14.5463V12.8173L103.933 12.6224V29.6695L103.524 29.1824L105.542 29.8156V31.5447L101.314 31.7395L100.882 29.6451L101.218 29.7669C100.513 30.465 99.8089 30.9927 99.1042 31.3498C98.4156 31.6908 97.687 31.8613 96.9183 31.8613ZM98.2154 29.3529C98.6318 29.3529 99.0722 29.2392 99.5366 29.012C100.001 28.7684 100.481 28.4194 100.978 27.9648L100.57 28.9876V20.2449L100.978 21.0242C100.225 20.8131 99.5446 20.7076 98.9361 20.7076C97.7991 20.7076 96.9663 21.0973 96.4379 21.8765C95.9254 22.6396 95.6692 23.6949 95.6692 25.0424C95.6692 25.9191 95.7733 26.6822 95.9815 27.3316C96.1896 27.981 96.4779 28.4843 96.8462 28.8415C97.2306 29.1824 97.687 29.3529 98.2154 29.3529Z" fill="black"/>
<path d="M110.287 21.8522C110.287 22.2256 110.447 22.526 110.767 22.7533C111.087 22.9805 111.496 23.1754 111.992 23.3377C112.505 23.5001 113.041 23.6705 113.602 23.8491C114.178 24.0277 114.715 24.2631 115.211 24.5554C115.723 24.8314 116.14 25.2048 116.46 25.6756C116.78 26.1464 116.941 26.7553 116.941 27.5021C116.941 28.46 116.684 29.2636 116.172 29.913C115.659 30.5624 114.963 31.0495 114.082 31.3742C113.201 31.6989 112.208 31.8613 111.103 31.8613C110.463 31.8613 109.782 31.8044 109.062 31.6908C108.357 31.5771 107.628 31.4229 106.876 31.2281L107.02 27.5508H109.134L109.398 29.6938L109.11 29.2798C109.43 29.3773 109.782 29.4584 110.166 29.5234C110.551 29.5721 110.887 29.5964 111.175 29.5964C111.592 29.5964 111.976 29.5396 112.328 29.426C112.697 29.3123 112.993 29.15 113.217 28.9389C113.457 28.7116 113.578 28.4275 113.578 28.0865C113.578 27.6969 113.417 27.3884 113.097 27.1611C112.777 26.9338 112.36 26.739 111.848 26.5767C111.352 26.4143 110.823 26.2438 110.263 26.0653C109.718 25.8867 109.19 25.6513 108.677 25.359C108.181 25.0668 107.772 24.6771 107.452 24.1901C107.132 23.703 106.972 23.0698 106.972 22.2905C106.972 21.3489 107.204 20.5858 107.668 20.0014C108.133 19.4007 108.749 18.9623 109.518 18.6863C110.303 18.4103 111.159 18.2723 112.088 18.2723C112.745 18.2723 113.441 18.3373 114.178 18.4671C114.915 18.5808 115.667 18.7513 116.436 18.9785L116.316 22.2418H114.178L113.794 20.318L114.25 20.8294C113.497 20.6183 112.833 20.5128 112.256 20.5128C111.664 20.5128 111.183 20.6345 110.815 20.8781C110.463 21.1054 110.287 21.4301 110.287 21.8522Z" fill="black"/>
<path d="M123.406 29.5721L123.166 29.2798L125.016 29.8156V31.569H118.434V29.8156L120.283 29.2798L120.043 29.5721V20.6833L120.259 20.9024L118.434 20.391V18.6376L123.406 18.4671V29.5721ZM121.629 16.5676C121.036 16.5676 120.556 16.3971 120.187 16.0562C119.835 15.7153 119.659 15.2282 119.659 14.595C119.659 13.9131 119.843 13.4098 120.211 13.0851C120.596 12.7442 121.076 12.5737 121.653 12.5737C122.213 12.5737 122.678 12.7442 123.046 13.0851C123.414 13.4098 123.598 13.905 123.598 14.5707C123.598 15.2363 123.406 15.7396 123.022 16.0805C122.654 16.4053 122.189 16.5676 121.629 16.5676Z" fill="black"/>
<path d="M130.91 31.8613C129.981 31.8613 129.156 31.6177 128.435 31.1307C127.731 30.6274 127.17 29.8887 126.754 28.9145C126.354 27.9404 126.153 26.7553 126.153 25.359C126.153 22.9562 126.754 21.1784 127.955 20.0257C129.156 18.8568 130.846 18.2723 133.023 18.2723C133.376 18.2723 133.728 18.2885 134.08 18.321C134.433 18.3535 134.801 18.4103 135.185 18.4915L134.561 18.8811V14.8629L134.801 15.2038L132.831 14.5463V12.8173L137.924 12.6224V29.6695L137.515 29.1824L139.533 29.8156V31.5447L135.305 31.7395L134.873 29.6451L135.209 29.7669C134.505 30.465 133.8 30.9927 133.096 31.3498C132.407 31.6908 131.678 31.8613 130.91 31.8613ZM132.207 29.3529C132.623 29.3529 133.063 29.2392 133.528 29.012C133.992 28.7684 134.473 28.4194 134.969 27.9648L134.561 28.9876V20.2449L134.969 21.0242C134.217 20.8131 133.536 20.7076 132.927 20.7076C131.79 20.7076 130.958 21.0973 130.429 21.8765C129.917 22.6396 129.66 23.6949 129.66 25.0424C129.66 25.9191 129.765 26.6822 129.973 27.3316C130.181 27.981 130.469 28.4843 130.838 28.8415C131.222 29.1824 131.678 29.3529 132.207 29.3529Z" fill="black"/>
<path d="M146.488 31.8613C145.319 31.8613 144.294 31.6177 143.413 31.1307C142.532 30.6274 141.844 29.8887 141.347 28.9145C140.867 27.9242 140.627 26.7228 140.627 25.3103C140.627 23.8491 140.883 22.599 141.395 21.56C141.924 20.5047 142.66 19.6929 143.605 19.1247C144.55 18.5564 145.663 18.2723 146.944 18.2723C148.193 18.2723 149.21 18.524 149.995 19.0272C150.78 19.5305 151.356 20.2205 151.725 21.0973C152.093 21.9577 152.277 22.9318 152.277 24.0196C152.277 24.2956 152.261 24.5716 152.229 24.8476C152.213 25.1236 152.181 25.4158 152.133 25.7243H143.341V23.703H149.25L148.818 24.0196C148.834 23.3702 148.77 22.802 148.626 22.3149C148.498 21.8116 148.273 21.422 147.953 21.146C147.649 20.87 147.225 20.732 146.68 20.732C146.055 20.732 145.551 20.9187 145.167 21.2921C144.782 21.6493 144.502 22.1363 144.326 22.7533C144.166 23.3702 144.086 24.0602 144.086 24.8233C144.086 25.6837 144.19 26.4549 144.398 27.1368C144.606 27.8187 144.942 28.3544 145.407 28.7441C145.887 29.1337 146.512 29.3285 147.281 29.3285C147.825 29.3285 148.41 29.2311 149.034 29.0363C149.675 28.8252 150.339 28.5168 151.028 28.1109L152.157 29.9374C151.228 30.5868 150.275 31.0738 149.298 31.3985C148.337 31.707 147.401 31.8613 146.488 31.8613Z" fill="black"/>
<path d="M168.944 29.9374L168.055 29.1337L170.121 29.8156V31.569H163.227V29.8156L165.317 29.2068L164.98 29.6938L164.019 26.528L164.548 26.9663H158.206L158.615 26.5523L157.582 29.6451L157.486 29.2798L159.407 29.8156V31.569H153.138V29.8156L155.131 29.1824L154.363 29.8643L160.032 14.4733L163.563 14.3758L168.944 29.9374ZM159.071 25.0181L158.831 24.5554H163.995L163.659 25.0911L161.161 16.2997H161.954L159.071 25.0181Z" fill="black"/>
<path d="M183 20.5371L182.519 20.6589C183.288 19.8634 184.105 19.2708 184.97 18.8811C185.834 18.4753 186.659 18.2723 187.444 18.2723C188.453 18.2723 189.293 18.6133 189.966 19.2951C190.655 19.9608 190.999 20.9917 190.999 22.388V29.7182L190.687 29.2311L192.608 29.8156V31.569H186.291V29.8156L188.044 29.2798L187.636 29.7913V23.1429C187.636 22.3636 187.476 21.7873 187.156 21.4138C186.851 21.0404 186.451 20.8537 185.955 20.8537C185.538 20.8537 185.074 20.9836 184.561 21.2434C184.049 21.5031 183.536 21.8847 183.024 22.388L183.264 21.633C183.296 21.7629 183.312 21.8847 183.312 21.9983C183.312 22.0957 183.312 22.185 183.312 22.2662V29.7182L183 29.2311L184.681 29.8156V31.569H178.58V29.8156L180.333 29.2798L179.949 29.7913V23.1429C179.949 22.3636 179.789 21.7873 179.469 21.4138C179.148 21.0404 178.748 20.8537 178.268 20.8537C177.851 20.8537 177.387 20.9755 176.874 21.219C176.362 21.4625 175.866 21.8278 175.385 22.3149L175.601 21.8035V29.7913L175.289 29.2798L176.97 29.8156V31.569H170.629V29.8156L172.647 29.2311L172.238 29.7182V20.4397L172.647 20.9998L170.629 20.391V18.6376L174.857 18.4428L175.289 20.7807L174.857 20.6102C175.609 19.8471 176.41 19.2708 177.259 18.8811C178.124 18.4753 178.948 18.2723 179.733 18.2723C180.47 18.2723 181.126 18.459 181.703 18.8324C182.279 19.1896 182.712 19.7578 183 20.5371Z" fill="black"/>
<path d="M199.457 31.8613C198.288 31.8613 197.263 31.6177 196.382 31.1307C195.501 30.6274 194.813 29.8887 194.316 28.9145C193.836 27.9242 193.596 26.7228 193.596 25.3103C193.596 23.8491 193.852 22.599 194.364 21.56C194.893 20.5047 195.63 19.6929 196.574 19.1247C197.519 18.5564 198.632 18.2723 199.913 18.2723C201.163 18.2723 202.179 18.524 202.964 19.0272C203.749 19.5305 204.325 20.2205 204.694 21.0973C205.062 21.9577 205.246 22.9318 205.246 24.0196C205.246 24.2956 205.23 24.5716 205.198 24.8476C205.182 25.1236 205.15 25.4158 205.102 25.7243H196.31V23.703H202.219L201.787 24.0196C201.803 23.3702 201.739 22.802 201.595 22.3149C201.467 21.8116 201.243 21.422 200.922 21.146C200.618 20.87 200.194 20.732 199.649 20.732C199.025 20.732 198.52 20.9187 198.136 21.2921C197.751 21.6493 197.471 22.1363 197.295 22.7533C197.135 23.3702 197.055 24.0602 197.055 24.8233C197.055 25.6837 197.159 26.4549 197.367 27.1368C197.575 27.8187 197.912 28.3544 198.376 28.7441C198.856 29.1337 199.481 29.3285 200.25 29.3285C200.794 29.3285 201.379 29.2311 202.003 29.0363C202.644 28.8252 203.308 28.5168 203.997 28.1109L205.126 29.9374C204.197 30.5868 203.244 31.0738 202.268 31.3985C201.307 31.707 200.37 31.8613 199.457 31.8613Z" fill="black"/>
<path d="M206.731 31.569V29.8156L208.677 29.2555L208.341 29.7669V20.4154L208.725 20.9998L206.731 20.391V18.6376L210.959 18.4428L211.392 20.7563L210.959 20.6589C211.68 19.8958 212.392 19.3114 213.097 18.9055C213.802 18.4834 214.554 18.2723 215.355 18.2723C215.868 18.2723 216.412 18.3535 216.989 18.5158L216.772 23.0211H214.827L214.466 20.391L214.779 21.0485C214.682 21.0161 214.578 20.9917 214.466 20.9755C214.37 20.9593 214.274 20.9511 214.178 20.9511C213.682 20.9511 213.185 21.1054 212.689 21.4138C212.208 21.7223 211.792 22.1201 211.44 22.6071L211.704 21.6817V29.7669L211.319 29.2555L213.698 29.8156V31.569H206.731Z" fill="black"/>
<path d="M222.847 29.5721L222.606 29.2798L224.456 29.8156V31.569H217.874V29.8156L219.724 29.2798L219.484 29.5721V20.6833L219.7 20.9024L217.874 20.391V18.6376L222.847 18.4671V29.5721ZM221.069 16.5676C220.476 16.5676 219.996 16.3971 219.628 16.0562C219.275 15.7153 219.099 15.2282 219.099 14.595C219.099 13.9131 219.283 13.4098 219.652 13.0851C220.036 12.7442 220.516 12.5737 221.093 12.5737C221.654 12.5737 222.118 12.7442 222.486 13.0851C222.855 13.4098 223.039 13.905 223.039 14.5707C223.039 15.2363 222.847 15.7396 222.462 16.0805C222.094 16.4053 221.629 16.5676 221.069 16.5676Z" fill="black"/>
<path d="M231.383 31.8613C230.278 31.8613 229.277 31.6015 228.38 31.082C227.499 30.5462 226.803 29.7831 226.29 28.7928C225.778 27.8024 225.522 26.601 225.522 25.1885C225.522 23.906 225.706 22.8263 226.074 21.9496C226.442 21.0729 226.939 20.3667 227.563 19.8309C228.188 19.2789 228.885 18.8811 229.653 18.6376C230.422 18.3941 231.215 18.2723 232.031 18.2723C232.8 18.2723 233.577 18.3697 234.361 18.5645C235.146 18.7594 235.787 18.9785 236.283 19.2221L236.187 22.802H234.025L233.665 20.805L233.929 20.9998C233.689 20.9024 233.393 20.8294 233.04 20.7807C232.704 20.732 232.392 20.7076 232.103 20.7076C231.415 20.7076 230.838 20.8862 230.374 21.2434C229.926 21.5843 229.589 22.0795 229.365 22.7289C229.141 23.3621 229.029 24.117 229.029 24.9937C229.029 25.9354 229.157 26.7309 229.413 27.3803C229.669 28.0297 230.03 28.5249 230.494 28.8658C230.974 29.1905 231.527 29.3529 232.151 29.3529C232.648 29.3529 233.192 29.2474 233.785 29.0363C234.377 28.8252 234.994 28.5087 235.635 28.0865L236.764 29.8156C235.867 30.5137 234.97 31.0333 234.073 31.3742C233.176 31.6989 232.28 31.8613 231.383 31.8613Z" fill="black"/>
<path d="M248.391 29.84L247.934 29.1581L250 29.8156V31.5447L245.796 31.7638L245.34 29.426L245.58 29.499C244.939 30.2945 244.243 30.8871 243.49 31.2768C242.738 31.6664 241.961 31.8613 241.16 31.8613C240.135 31.8613 239.286 31.5284 238.614 30.8628C237.941 30.1971 237.605 29.2393 237.605 27.9891C237.605 27.0637 237.797 26.3331 238.181 25.7974C238.582 25.2454 239.158 24.8476 239.911 24.6041C240.664 24.3605 241.576 24.2388 242.649 24.2388H245.268L245.028 24.5067V22.8994C245.028 22.1363 244.843 21.5924 244.475 21.2677C244.123 20.943 243.602 20.7807 242.914 20.7807C242.577 20.7807 242.217 20.8131 241.833 20.8781C241.448 20.943 241.032 21.0404 240.584 21.1703L240.92 20.805L240.608 22.7776H238.518L238.326 19.2221C239.415 18.8974 240.407 18.662 241.304 18.5158C242.217 18.3535 243.05 18.2723 243.802 18.2723C245.292 18.2723 246.429 18.597 247.213 19.2464C247.998 19.8958 248.391 20.9024 248.391 22.2662V29.84ZM240.992 27.6482C240.992 28.2489 241.128 28.6954 241.4 28.9876C241.689 29.2636 242.049 29.4016 242.481 29.4016C242.882 29.4016 243.322 29.2798 243.802 29.0363C244.283 28.7765 244.739 28.4275 245.172 27.9891L245.028 28.5736V25.7974L245.268 26.0409H243.202C242.369 26.0409 241.793 26.1708 241.472 26.4305C241.152 26.6903 240.992 27.0962 240.992 27.6482Z" fill="black"/>
<path d="M7.77691 29.8522V27.9415L10.1939 27.2516L9.72104 27.9946V13.1343L10.3778 13.9304L7.77691 13.2139V11.3033L13.6356 11.1706H16.184C18.2857 11.1706 19.8708 11.6128 20.9392 12.4974C22.0076 13.3819 22.5418 14.6557 22.5418 16.3186C22.5418 17.8047 22.0864 19.0342 21.1756 20.0072C20.2824 20.9802 18.8725 21.5728 16.9458 21.7851L16.9721 21.3605C17.6552 21.3782 18.2157 21.4844 18.6535 21.679C19.0914 21.8736 19.4504 22.1478 19.7307 22.5016C20.0284 22.8377 20.2999 23.2446 20.5451 23.7223L22.6469 27.8089L21.5697 27.1454L23.9867 27.9415V29.8522H19.6781L17.3136 24.7306C16.9984 24.0584 16.7269 23.5454 16.4992 23.1915C16.2715 22.82 15.9913 22.5724 15.6585 22.4485C15.3257 22.307 14.8441 22.2451 14.2136 22.2628H12.8474L13.4779 21.732V27.9946L12.9788 27.2251L15.6322 27.9415V29.8522H7.77691ZM13.4779 20.5644L12.8474 19.6357H15.028C16.254 19.6357 17.1735 19.3791 17.7865 18.8661C18.3996 18.3531 18.7061 17.5924 18.7061 16.584C18.7061 15.7348 18.4609 15.0714 17.9704 14.5938C17.48 14.1161 16.7269 13.8773 15.7111 13.8773H12.8474L13.4779 13.2935V20.5644Z" fill="black"/>
<path d="M36.3067 33.0498L35.3346 32.1741L37.594 32.9171V34.8277H30.0539V32.9171L32.3396 32.2537L31.9718 32.7844L30.9209 29.3347L31.4989 29.8123H24.5631L25.0097 29.3612L23.88 32.7313L23.7749 32.3333L25.8767 32.9171V34.8277H19.0197V32.9171L21.2003 32.2272L20.3596 32.9702L26.5598 16.1992L30.4217 16.0931L36.3067 33.0498ZM25.5089 27.6894L25.2462 27.1853H30.8946L30.5268 27.7691L27.7945 18.1894H28.6615L25.5089 27.6894Z" fill="black"/>
<path fill-rule="evenodd" clip-rule="evenodd" d="M22.6869 41.9412C33.0054 41.9412 41.3703 33.4609 41.3703 23C41.3703 12.5391 33.0054 4.05882 22.6869 4.05882C12.3684 4.05882 4.00357 12.5391 4.00357 23C4.00357 33.4609 12.3684 41.9412 22.6869 41.9412ZM22.6869 46C35.2166 46 45.3738 35.7025 45.3738 23C45.3738 10.2975 35.2166 0 22.6869 0C10.1573 0 0 10.2975 0 23C0 35.7025 10.1573 46 22.6869 46Z" fill="black"/>
</svg>
